<svg width="988" height="782" viewBox="0 0 988 782" fill="none" xmlns="http://www.w3.org/2000/svg">
<g clip-path="url(#clip0_2_67)">
<path opacity="0.1" d="M1140.99 327.75C1134.04 355.9 1098.36 370.01 1078.37 391.01C1040.7 430.59 1055.37 488.39 1079.27 534.68C1087.27 550.18 1096.35 566.59 1092.96 583.21C1088.83 603.54 1066.88 618.4 1043.83 626.28C1001.83 640.63 951.53 637.21 912.92 617.36C879.56 600.21 855.66 572.36 821.73 555.94C764.94 528.55 692.66 538.94 630.99 557.77C587.37 571.12 539.67 588.49 496.32 574.55C465.82 564.73 444.73 540.83 433.24 515.55C427.7 503.32 423.67 490.08 413.08 480.39C406.78 474.62 398.56 470.53 390.15 467.09C313.27 435.59 216.15 452.46 141.52 417.52C91.1 393.93 58.81 349.43 44.52 303.02C30.23 256.61 31.89 207.95 35.52 160.15C38.1 126.15 42.73 89.93 68.99 63.71C96.77 35.98 144.44 25.71 187.54 30.94C230.64 36.17 269.69 55 304.06 77.12C347.06 104.78 386.84 139.21 439.57 150.41C475.48 158.04 513.25 153.86 550.29 152.41C612.21 150 674.15 155.41 735.72 161.25C765.72 164.12 795.82 167.13 825.56 171.49C832.227 172.463 838.893 173.513 845.56 174.64C848.9 175.21 852.24 175.8 855.56 176.41C858.16 176.88 860.75 177.41 863.34 177.88C867.427 178.673 871.5 179.507 875.56 180.38C887.22 182.88 898.77 185.71 910.2 188.93C949.94 200.14 981.8 220.5 1019.33 234.72C1043.79 243.99 1070.46 246.55 1093.62 258.35C1122.12 272.84 1148.3 298.15 1140.99 327.75Z" fill="#4CFA60"/>
<path d="M939.95 477.75C996.41 477.75 1042.18 431.98 1042.18 375.52C1042.18 319.06 996.41 273.29 939.95 273.29C883.49 273.29 837.72 319.06 837.72 375.52C837.72 431.98 883.49 477.75 939.95 477.75Z" fill="#4CFA60"/>
<path d="M831.23 449.82C887.69 449.82 933.46 404.05 933.46 347.59C933.46 291.13 887.69 245.36 831.23 245.36C774.77 245.36 729 291.13 729 347.59C729 404.05 774.77 449.82 831.23 449.82Z" fill="#4CFA60"/>
<path d="M711.55 450.82C768.01 450.82 813.78 405.05 813.78 348.59C813.78 292.13 768.01 246.36 711.55 246.36C655.09 246.36 609.32 292.13 609.32 348.59C609.32 405.05 655.09 450.82 711.55 450.82Z" fill="#4CFA60"/>
<path d="M672.65 477.75C729.11 477.75 774.88 431.98 774.88 375.52C774.88 319.06 729.11 273.29 672.65 273.29C616.19 273.29 570.42 319.06 570.42 375.52C570.42 431.98 616.19 477.75 672.65 477.75Z" fill="#4CFA60"/>
<path d="M606.82 486.73C663.28 486.73 709.05 440.96 709.05 384.5C709.05 328.04 663.28 282.27 606.82 282.27C550.36 282.27 504.59 328.04 504.59 384.5C504.59 440.96 550.36 486.73 606.82 486.73Z" fill="#4CFA60"/>
<path d="M579.89 405.94C636.35 405.94 682.12 360.17 682.12 303.71C682.12 247.25 636.35 201.48 579.89 201.48C523.43 201.48 477.66 247.25 477.66 303.71C477.66 360.17 523.43 405.94 579.89 405.94Z" fill="#4CFA60"/>
<path d="M609.81 312.18C666.27 312.18 712.04 266.41 712.04 209.95C712.04 153.49 666.27 107.72 609.81 107.72C553.35 107.72 507.58 153.49 507.58 209.95C507.58 266.41 553.35 312.18 609.81 312.18Z" fill="#4CFA60"/>
<path d="M666.66 312.18C723.12 312.18 768.89 266.41 768.89 209.95C768.89 153.49 723.12 107.72 666.66 107.72C610.2 107.72 564.43 153.49 564.43 209.95C564.43 266.41 610.2 312.18 666.66 312.18Z" fill="#4CFA60"/>
<path d="M699.58 270.29C756.04 270.29 801.81 224.52 801.81 168.06C801.81 111.6 756.04 65.83 699.58 65.83C643.12 65.83 597.35 111.6 597.35 168.06C597.35 224.52 643.12 270.29 699.58 270.29Z" fill="#4CFA60"/>
<path d="M783.36 316.17C839.82 316.17 885.59 270.4 885.59 213.94C885.59 157.48 839.82 111.71 783.36 111.71C726.9 111.71 681.13 157.48 681.13 213.94C681.13 270.4 726.9 316.17 783.36 316.17Z" fill="#4CFA60"/>
<path d="M978.85 405.94C1035.31 405.94 1081.08 360.17 1081.08 303.71C1081.08 247.25 1035.31 201.48 978.85 201.48C922.39 201.48 876.62 247.25 876.62 303.71C876.62 360.17 922.39 405.94 978.85 405.94Z" fill="#4CFA60"/>
<path d="M920 355.07C976.46 355.07 1022.23 309.3 1022.23 252.84C1022.23 196.38 976.46 150.61 920 150.61C863.54 150.61 817.77 196.38 817.77 252.84C817.77 309.3 863.54 355.07 920 355.07Z" fill="#4CFA60"/>
<path d="M882.1 304.2C938.56 304.2 984.33 258.43 984.33 201.97C984.33 145.51 938.56 99.74 882.1 99.74C825.64 99.74 779.87 145.51 779.87 201.97C779.87 258.43 825.64 304.2 882.1 304.2Z" fill="#4CFA60"/>
<path d="M810.29 227.4C866.75 227.4 912.52 181.63 912.52 125.17C912.52 68.7099 866.75 22.94 810.29 22.94C753.83 22.94 708.06 68.7099 708.06 125.17C708.06 181.63 753.83 227.4 810.29 227.4Z" fill="#4CFA60"/>
<path d="M943.94 312.18C1000.4 312.18 1046.17 266.41 1046.17 209.95C1046.17 153.49 1000.4 107.72 943.94 107.72C887.48 107.72 841.71 153.49 841.71 209.95C841.71 266.41 887.48 312.18 943.94 312.18Z" fill="#4CFA60"/>
<g opacity="0.1">
<path d="M939.95 477.75C996.41 477.75 1042.18 431.98 1042.18 375.52C1042.18 319.06 996.41 273.29 939.95 273.29C883.49 273.29 837.72 319.06 837.72 375.52C837.72 431.98 883.49 477.75 939.95 477.75Z" fill="black"/>
<path d="M831.23 449.82C887.69 449.82 933.46 404.05 933.46 347.59C933.46 291.13 887.69 245.36 831.23 245.36C774.77 245.36 729 291.13 729 347.59C729 404.05 774.77 449.82 831.23 449.82Z" fill="black"/>
<path d="M711.55 450.82C768.01 450.82 813.78 405.05 813.78 348.59C813.78 292.13 768.01 246.36 711.55 246.36C655.09 246.36 609.32 292.13 609.32 348.59C609.32 405.05 655.09 450.82 711.55 450.82Z" fill="black"/>
<path d="M672.65 477.75C729.11 477.75 774.88 431.98 774.88 375.52C774.88 319.06 729.11 273.29 672.65 273.29C616.19 273.29 570.42 319.06 570.42 375.52C570.42 431.98 616.19 477.75 672.65 477.75Z" fill="black"/>
<path d="M606.82 486.73C663.28 486.73 709.05 440.96 709.05 384.5C709.05 328.04 663.28 282.27 606.82 282.27C550.36 282.27 504.59 328.04 504.59 384.5C504.59 440.96 550.36 486.73 606.82 486.73Z" fill="black"/>
<path d="M579.89 405.94C636.35 405.94 682.12 360.17 682.12 303.71C682.12 247.25 636.35 201.48 579.89 201.48C523.43 201.48 477.66 247.25 477.66 303.71C477.66 360.17 523.43 405.94 579.89 405.94Z" fill="black"/>
<path d="M609.81 312.18C666.27 312.18 712.04 266.41 712.04 209.95C712.04 153.49 666.27 107.72 609.81 107.72C553.35 107.72 507.58 153.49 507.58 209.95C507.58 266.41 553.35 312.18 609.81 312.18Z" fill="black"/>
<path d="M666.66 312.18C723.12 312.18 768.89 266.41 768.89 209.95C768.89 153.49 723.12 107.72 666.66 107.72C610.2 107.72 564.43 153.49 564.43 209.95C564.43 266.41 610.2 312.18 666.66 312.18Z" fill="black"/>
<path d="M699.58 270.29C756.04 270.29 801.81 224.52 801.81 168.06C801.81 111.6 756.04 65.83 699.58 65.83C643.12 65.83 597.35 111.6 597.35 168.06C597.35 224.52 643.12 270.29 699.58 270.29Z" fill="black"/>
<path d="M783.36 316.17C839.82 316.17 885.59 270.4 885.59 213.94C885.59 157.48 839.82 111.71 783.36 111.71C726.9 111.71 681.13 157.48 681.13 213.94C681.13 270.4 726.9 316.17 783.36 316.17Z" fill="black"/>
<path d="M978.85 405.94C1035.31 405.94 1081.08 360.17 1081.08 303.71C1081.08 247.25 1035.31 201.48 978.85 201.48C922.39 201.48 876.62 247.25 876.62 303.71C876.62 360.17 922.39 405.94 978.85 405.94Z" fill="black"/>
<path d="M920 355.07C976.46 355.07 1022.23 309.3 1022.23 252.84C1022.23 196.38 976.46 150.61 920 150.61C863.54 150.61 817.77 196.38 817.77 252.84C817.77 309.3 863.54 355.07 920 355.07Z" fill="black"/>
<path d="M882.1 304.2C938.56 304.2 984.33 258.43 984.33 201.97C984.33 145.51 938.56 99.74 882.1 99.74C825.64 99.74 779.87 145.51 779.87 201.97C779.87 258.43 825.64 304.2 882.1 304.2Z" fill="black"/>
<path d="M810.29 227.4C866.75 227.4 912.52 181.63 912.52 125.17C912.52 68.7099 866.75 22.94 810.29 22.94C753.83 22.94 708.06 68.7099 708.06 125.17C708.06 181.63 753.83 227.4 810.29 227.4Z" fill="black"/>
<path d="M943.94 312.18C1000.4 312.18 1046.17 266.41 1046.17 209.95C1046.17 153.49 1000.4 107.72 943.94 107.72C887.48 107.72 841.71 153.49 841.71 209.95C841.71 266.41 887.48 312.18 943.94 312.18Z" fill="black"/>
</g>
<path d="M889.46 554.67C889.46 554.67 951.96 502.14 921.04 427.34L890.12 415.76L856.57 519.05L889.46 554.67Z" fill="#67647E"/>
<path opacity="0.1" d="M892.79 412.2L900.19 414.97L867.25 516.38L895.99 547.5C893.61 549.87 892.13 551.11 892.13 551.11L859.23 515.49L892.79 412.2Z" fill="black"/>
<path opacity="0.1" d="M579.5 781.1C886.846 781.1 1136 739.391 1136 687.94C1136 636.489 886.846 594.78 579.5 594.78C272.154 594.78 23 636.489 23 687.94C23 739.391 272.154 781.1 579.5 781.1Z" fill="#4CFA60"/>
<path d="M1007.84 543.65C1007.84 543.65 987.51 563.98 998.99 594.15C1010.47 624.32 979.32 674.48 979.32 674.48L980.32 674.32C1022.07 666.95 1042.82 619.2 1019.6 583.72C1010.92 570.55 1003.83 555.07 1007.84 543.65Z" fill="#4CFA60"/>
<path d="M1007.84 543.65C1007.84 543.65 996.36 568.57 1007.84 588.9C1019.32 609.23 1009.84 666.28 979.31 674.48" stroke="#535461" stroke-miterlimit="10"/>
<path d="M1044.05 625.88C1044.05 625.88 1020.85 622.19 1018.74 642.98C1016.63 663.77 974.12 666.65 974.12 666.65L974.92 667.18C1010.01 690.18 1043.55 681.85 1038.49 651.27C1036.62 639.9 1036.77 628.48 1044.05 625.88Z" fill="#4CFA60"/>
<path opacity="0.2" d="M1044.05 625.88C1044.05 625.88 1020.85 622.19 1018.74 642.98C1016.63 663.77 974.12 666.65 974.12 666.65L974.92 667.18C1010.01 690.18 1043.55 681.85 1038.49 651.27C1036.62 639.9 1036.77 628.48 1044.05 625.88Z" fill="#F5F5F5"/>
<path d="M1044.05 625.88C1044.05 625.88 1026.05 629.88 1027.52 646.21C1028.99 662.54 1000.78 682.21 974.13 666.65" stroke="#535461" stroke-miterlimit="10"/>
<path d="M607.2 445.26L615.32 477.76C615.32 477.76 672.69 485.24 710.94 480.54C717.702 479.581 724.193 477.239 730.01 473.66C733.24 471.75 738.34 470.92 745.31 476.14C757.25 485.14 815.85 557.14 806.36 631.84C805.623 637.468 803.052 642.697 799.045 646.718C795.037 650.738 789.816 653.326 784.19 654.08C772.504 655.672 761.333 659.899 751.52 666.44L722.52 685.75L1019.87 679.25L989 641.88C989 641.88 967.88 624.01 951.63 622.38C946.89 621.91 942.98 617.56 939.82 611.65C921.31 577 899.17 544.42 875.17 513.31C857.69 490.65 843.02 466.77 844.39 451.77C847.64 416.02 844.39 357.53 844.39 357.53L782.65 349.41C782.65 349.41 790.77 427.41 716.03 446.9C641.29 466.39 607.2 445.26 607.2 445.26Z" fill="#67647E"/>
<g opacity="0.1">
<path d="M657.57 459.89C657.57 459.89 691.69 481.01 766.44 461.51C841.19 442.01 833.06 364.02 833.06 364.02L844.81 365.55C844.59 360.55 844.42 357.55 844.42 357.55L782.68 349.43C782.68 349.43 790.8 427.43 716.06 446.92C641.32 466.41 607.19 445.3 607.19 445.3L615.31 477.8C615.31 477.8 637.23 480.66 663.01 481.73L657.57 459.89Z" fill="black"/>
<path d="M801.89 681.06C811.703 674.519 822.874 670.292 834.56 668.7C840.174 667.954 845.386 665.381 849.391 661.378C853.396 657.374 855.972 652.163 856.72 646.55C866.26 571.85 807.63 499.72 795.72 490.76C782.72 481.01 776.22 492.38 776.22 492.38C771.619 493.587 766.942 494.479 762.22 495.05C783.28 523.05 813.41 576.76 806.36 631.92C805.612 637.533 803.036 642.744 799.031 646.748C795.026 650.751 789.814 653.324 784.2 654.07C772.514 655.662 761.343 659.889 751.53 666.43L722.53 685.74L797.29 684.11L801.89 681.06Z" fill="black"/>
</g>
<path d="M656.96 602.91C656.96 602.91 650.75 581.83 658.12 566.31C661.253 559.821 662.197 552.491 660.81 545.42C660.112 542.065 659.108 538.781 657.81 535.61" stroke="#535461" stroke-width="2" stroke-miterlimit="10"/>
<path d="M662.45 525.8C662.45 528.38 657.77 535.88 657.77 535.88C657.77 535.88 653.12 528.38 653.12 525.8C653.12 524.559 653.613 523.368 654.491 522.491C655.368 521.613 656.559 521.12 657.8 521.12C659.041 521.12 660.232 521.613 661.109 522.491C661.987 523.368 662.48 524.559 662.48 525.8H662.45Z" fill="#4CFA60"/>
<path d="M670.19 540.11C668.79 542.28 660.79 546.03 660.79 546.03C660.79 546.03 660.94 537.2 662.34 535.03C662.665 534.494 663.094 534.03 663.602 533.663C664.11 533.296 664.686 533.035 665.297 532.895C665.907 532.755 666.54 532.74 667.156 532.849C667.773 532.958 668.362 533.19 668.888 533.53C669.413 533.871 669.865 534.314 670.216 534.833C670.568 535.351 670.811 535.935 670.933 536.55C671.054 537.164 671.051 537.797 670.923 538.41C670.796 539.023 670.546 539.605 670.19 540.12V540.11Z" fill="#4CFA60"/>
<path d="M669.85 564.55C667.54 565.71 658.75 564.91 658.75 564.91C658.75 564.91 663.33 557.36 665.64 556.2C666.189 555.924 666.787 555.758 667.4 555.713C668.013 555.667 668.629 555.743 669.212 555.936C669.796 556.129 670.336 556.434 670.801 556.836C671.267 557.237 671.649 557.726 671.925 558.275C672.201 558.824 672.367 559.422 672.412 560.035C672.458 560.648 672.382 561.264 672.189 561.847C671.996 562.431 671.691 562.971 671.289 563.436C670.888 563.902 670.399 564.284 669.85 564.56V564.55Z" fill="#4CFA60"/>
<path d="M665.43 583.02C663.35 584.56 654.55 585.25 654.55 585.25C654.55 585.25 657.79 577.03 659.87 575.5C660.87 574.822 662.093 574.557 663.284 574.76C664.475 574.964 665.541 575.62 666.26 576.591C666.978 577.563 667.293 578.774 667.138 579.972C666.983 581.171 666.371 582.263 665.43 583.02Z" fill="#4CFA60"/>
<path d="M650.96 546.55C652.81 548.35 661.45 550.22 661.45 550.22C661.45 550.22 659.34 541.64 657.45 539.84C656.552 539.017 655.37 538.577 654.153 538.612C652.936 538.648 651.78 539.156 650.932 540.029C650.083 540.902 649.609 542.072 649.608 543.289C649.608 544.507 650.082 545.676 650.93 546.55H650.96Z" fill="#4CFA60"/>
<path d="M646.06 568.17C648.37 569.33 657.16 568.53 657.16 568.53C657.16 568.53 652.58 560.98 650.27 559.82C649.161 559.262 647.876 559.167 646.698 559.556C645.519 559.945 644.543 560.786 643.985 561.895C643.427 563.003 643.332 564.288 643.721 565.467C644.11 566.646 644.951 567.622 646.06 568.18V568.17Z" fill="#4CFA60"/>
<path d="M644.18 589.86C646.26 591.4 655.06 592.09 655.06 592.09C655.06 592.09 651.82 583.87 649.74 582.34C648.74 581.662 647.517 581.397 646.326 581.6C645.135 581.804 644.069 582.46 643.35 583.431C642.632 584.403 642.317 585.614 642.472 586.813C642.627 588.011 643.239 589.103 644.18 589.86Z" fill="#4CFA60"/>
<path d="M643.45 600.85C643.45 600.85 654.8 598.58 657.82 595.55C660.84 592.52 674.46 587.23 675.98 591.01C677.5 594.79 696.41 607.65 683.54 609.92C670.67 612.19 653.28 612.92 649.54 611.43C645.8 609.94 643.45 600.85 643.45 600.85Z" fill="#A8A8A8"/>
<path opacity="0.2" d="M683.55 608.55C670.69 610.82 653.29 611.55 649.55 610.06C646.67 608.91 644.67 603.37 643.88 600.8L643.5 600.88C643.5 600.88 645.77 609.96 649.55 611.47C653.33 612.98 670.73 612.23 683.55 609.96C687.26 609.3 688.32 607.77 687.92 605.82C687.6 607.06 686.31 608.04 683.55 608.55Z" fill="black"/>
<path d="M831.62 672.01C831.62 672.01 866.05 665.12 875.24 655.94C884.43 646.76 925.74 630.69 930.33 642.17C934.92 653.65 992.33 692.67 953.33 699.56C914.33 706.45 861.51 708.74 850.03 704.15C838.55 699.56 831.62 672.01 831.62 672.01Z" fill="#A8A8A8"/>
<path opacity="0.2" d="M953.29 695.29C914.29 702.18 861.47 704.47 849.99 699.88C841.25 696.38 835.17 679.58 832.77 671.77L831.62 672.01C831.62 672.01 838.51 699.56 849.98 704.15C861.45 708.74 914.26 706.45 953.28 699.56C964.55 697.56 967.77 692.9 966.55 687C965.6 690.85 961.67 693.82 953.29 695.29Z" fill="black"/>
<path d="M782.37 470.77C782.232 474.879 780.935 478.866 778.63 482.27C776.325 478.866 775.028 474.879 774.89 470.77C774.89 464.42 776.56 459.27 778.63 459.27C780.7 459.27 782.37 464.42 782.37 470.77Z" fill="#4CFA60"/>
<path d="M970.57 523.88C970.432 527.989 969.135 531.976 966.83 535.38C964.525 531.976 963.228 527.989 963.09 523.88C963.09 517.53 964.76 512.38 966.83 512.38C968.9 512.38 970.57 517.55 970.57 523.88Z" fill="#4CFA60"/>
<path d="M900.69 485.68C900.552 489.789 899.255 493.776 896.95 497.18C894.645 493.776 893.348 489.789 893.21 485.68C893.21 479.33 894.88 474.18 896.95 474.18C899.02 474.18 900.69 479.33 900.69 485.68Z" fill="#4CFA60"/>
<path d="M857.34 508.97C859.263 512.605 860.119 516.709 859.81 520.81C856.103 519.008 852.983 516.192 850.81 512.69C847.65 507.18 846.55 501.88 848.34 500.85C850.13 499.82 854.19 503.46 857.34 508.97Z" fill="#4CFA60"/>
<path d="M824.95 614.61C821.857 617.321 818.061 619.103 814 619.75C814.907 615.741 816.928 612.07 819.83 609.16C824.46 604.82 829.37 602.52 830.78 604.02C832.19 605.52 829.58 610.27 824.95 614.61Z" fill="#4CFA60"/>
<path opacity="0.1" d="M824.95 614.61C821.857 617.321 818.061 619.103 814 619.75C814.907 615.741 816.928 612.07 819.83 609.16C824.46 604.82 829.37 602.52 830.78 604.02C832.19 605.52 829.58 610.27 824.95 614.61Z" fill="black"/>
<path d="M892.96 608.09C889.867 610.801 886.071 612.583 882.01 613.23C882.917 609.221 884.938 605.551 887.84 602.64C892.47 598.3 897.38 596 898.79 597.5C900.2 599 897.59 603.74 892.96 608.09Z" fill="#4CFA60"/>
<path opacity="0.1" d="M892.96 608.09C889.867 610.801 886.071 612.583 882.01 613.23C882.917 609.221 884.938 605.551 887.84 602.64C892.47 598.3 897.38 596 898.79 597.5C900.2 599 897.59 603.74 892.96 608.09Z" fill="black"/>
<path d="M906 677.03C902.907 679.741 899.111 681.523 895.05 682.17C895.955 678.15 897.98 674.468 900.89 671.55C905.52 667.21 910.43 664.91 911.84 666.41C913.25 667.91 910.64 672.68 906 677.03Z" fill="#4CFA60"/>
<path opacity="0.1" d="M906 677.03C902.907 679.741 899.111 681.523 895.05 682.17C895.955 678.15 897.98 674.468 900.89 671.55C905.52 667.21 910.43 664.91 911.84 666.41C913.25 667.91 910.64 672.68 906 677.03Z" fill="black"/>
<path d="M90.47 566.82C105.8 589.45 100.91 670.47 100.91 670.47C100.91 670.47 23.86 644.96 8.53 622.34C1.16892 611.473 -1.57368 598.126 0.905551 585.237C3.38478 572.348 10.8828 560.971 21.75 553.61C32.6172 546.249 45.9636 543.506 58.8529 545.986C71.7423 548.465 83.1189 555.963 90.48 566.83L90.47 566.82Z" fill="#4CFA60"/>
<path opacity="0.1" d="M90.47 566.82C105.8 589.45 100.91 670.47 100.91 670.47C100.91 670.47 23.86 644.96 8.53 622.34C1.16892 611.473 -1.57368 598.126 0.905551 585.237C3.38478 572.348 10.8828 560.971 21.75 553.61C32.6172 546.249 45.9636 543.506 58.8529 545.986C71.7423 548.465 83.1189 555.963 90.48 566.83L90.47 566.82Z" fill="black"/>
<path d="M22.04 553.66C22.04 553.66 79.78 598.24 101.21 670.55" stroke="#535461" stroke-miterlimit="10"/>
<path d="M115.75 609.12C115.75 609.12 74.75 602.12 102.75 670.03C102.75 670.03 131.24 659.17 133.46 632.15C133.9 626.893 132.398 621.657 129.238 617.433C126.077 613.209 121.478 610.291 116.31 609.23L115.75 609.12Z" fill="#4CFA60"/>
<path d="M116.35 609.05C116.35 609.05 124.16 646.61 102.79 670.05" stroke="#535461" stroke-miterlimit="10"/>
<path d="M939.95 454.81C996.41 454.81 1042.18 409.04 1042.18 352.58C1042.18 296.12 996.41 250.35 939.95 250.35C883.49 250.35 837.72 296.12 837.72 352.58C837.72 409.04 883.49 454.81 939.95 454.81Z" fill="#4CFA60"/>
<path d="M831.23 426.88C887.69 426.88 933.46 381.11 933.46 324.65C933.46 268.19 887.69 222.42 831.23 222.42C774.77 222.42 729 268.19 729 324.65C729 381.11 774.77 426.88 831.23 426.88Z" fill="#4CFA60"/>
<path d="M711.55 427.88C768.01 427.88 813.78 382.11 813.78 325.65C813.78 269.19 768.01 223.42 711.55 223.42C655.09 223.42 609.32 269.19 609.32 325.65C609.32 382.11 655.09 427.88 711.55 427.88Z" fill="#4CFA60"/>
<path d="M672.65 454.81C729.11 454.81 774.88 409.04 774.88 352.58C774.88 296.12 729.11 250.35 672.65 250.35C616.19 250.35 570.42 296.12 570.42 352.58C570.42 409.04 616.19 454.81 672.65 454.81Z" fill="#4CFA60"/>
<path d="M606.82 463.79C663.28 463.79 709.05 418.02 709.05 361.56C709.05 305.1 663.28 259.33 606.82 259.33C550.36 259.33 504.59 305.1 504.59 361.56C504.59 418.02 550.36 463.79 606.82 463.79Z" fill="#4CFA60"/>
<path d="M579.89 383C636.35 383 682.12 337.23 682.12 280.77C682.12 224.31 636.35 178.54 579.89 178.54C523.43 178.54 477.66 224.31 477.66 280.77C477.66 337.23 523.43 383 579.89 383Z" fill="#4CFA60"/>
<path d="M609.81 289.24C666.27 289.24 712.04 243.47 712.04 187.01C712.04 130.55 666.27 84.78 609.81 84.78C553.35 84.78 507.58 130.55 507.58 187.01C507.58 243.47 553.35 289.24 609.81 289.24Z" fill="#4CFA60"/>
<path d="M666.66 289.24C723.12 289.24 768.89 243.47 768.89 187.01C768.89 130.55 723.12 84.78 666.66 84.78C610.2 84.78 564.43 130.55 564.43 187.01C564.43 243.47 610.2 289.24 666.66 289.24Z" fill="#4CFA60"/>
<path d="M699.58 247.35C756.04 247.35 801.81 201.58 801.81 145.12C801.81 88.6599 756.04 42.89 699.58 42.89C643.12 42.89 597.35 88.6599 597.35 145.12C597.35 201.58 643.12 247.35 699.58 247.35Z" fill="#4CFA60"/>
<path d="M783.36 293.23C839.82 293.23 885.59 247.46 885.59 191C885.59 134.54 839.82 88.77 783.36 88.77C726.9 88.77 681.13 134.54 681.13 191C681.13 247.46 726.9 293.23 783.36 293.23Z" fill="#4CFA60"/>
<path d="M978.85 383C1035.31 383 1081.08 337.23 1081.08 280.77C1081.08 224.31 1035.31 178.54 978.85 178.54C922.39 178.54 876.62 224.31 876.62 280.77C876.62 337.23 922.39 383 978.85 383Z" fill="#4CFA60"/>
<path d="M920 332.13C976.46 332.13 1022.23 286.36 1022.23 229.9C1022.23 173.44 976.46 127.67 920 127.67C863.54 127.67 817.77 173.44 817.77 229.9C817.77 286.36 863.54 332.13 920 332.13Z" fill="#4CFA60"/>
<path d="M882.1 281.26C938.56 281.26 984.33 235.49 984.33 179.03C984.33 122.57 938.56 76.8 882.1 76.8C825.64 76.8 779.87 122.57 779.87 179.03C779.87 235.49 825.64 281.26 882.1 281.26Z" fill="#4CFA60"/>
<path d="M810.29 204.46C866.75 204.46 912.52 158.69 912.52 102.23C912.52 45.7699 866.75 0 810.29 0C753.83 0 708.06 45.7699 708.06 102.23C708.06 158.69 753.83 204.46 810.29 204.46Z" fill="#4CFA60"/>
<path d="M943.94 289.24C1000.4 289.24 1046.17 243.47 1046.17 187.01C1046.17 130.55 1000.4 84.78 943.94 84.78C887.48 84.78 841.71 130.55 841.71 187.01C841.71 243.47 887.48 289.24 943.94 289.24Z" fill="#4CFA60"/>
<path opacity="0.1" d="M1041.73 203.02C1041.73 203.02 946.52 157.87 888.91 237.89L1041.73 203.02Z" fill="black"/>
<path opacity="0.1" d="M791.65 111.55C791.65 111.55 686.33 108.37 665.65 204.77L791.65 111.55Z" fill="black"/>
<path opacity="0.1" d="M660.73 320.71C660.73 320.71 565.52 275.55 507.91 355.55L660.73 320.71Z" fill="black"/>
<path d="M244.04 575.55C244.04 575.55 249.53 582.73 241.5 593.55C233.47 604.37 226.85 613.55 229.5 620.31C229.5 620.31 241.61 600.17 251.5 599.89C261.39 599.61 254.88 587.66 244.04 575.55Z" fill="#4CFA60"/>
<path opacity="0.1" d="M244.04 575.55C244.518 576.243 244.895 577.001 245.16 577.8C254.78 589.1 259.91 599.65 250.66 599.92C242.05 600.17 231.71 615.57 229.24 619.46C229.32 619.762 229.417 620.059 229.53 620.35C229.53 620.35 241.64 600.21 251.53 599.93C261.42 599.65 254.88 587.66 244.04 575.55Z" fill="black"/>
<path d="M254.25 584.71C254.25 587.24 253.97 589.29 253.62 589.29C253.27 589.29 252.99 587.29 252.99 584.71C252.99 582.13 253.34 583.37 253.69 583.37C254.04 583.37 254.25 582.18 254.25 584.71Z" fill="#FFD037"/>
<path d="M257.75 587.72C255.53 588.93 253.59 589.66 253.43 589.35C253.27 589.04 254.93 587.81 257.15 586.6C259.37 585.39 258.49 586.27 258.66 586.6C258.83 586.93 259.97 586.55 257.75 587.72Z" fill="#FFD037"/>
<path d="M215.02 575.55C215.02 575.55 209.53 582.73 217.56 593.55C225.59 604.37 232.21 613.55 229.56 620.31C229.56 620.31 217.45 600.17 207.56 599.89C197.67 599.61 204.17 587.66 215.02 575.55Z" fill="#4CFA60"/>
<path opacity="0.1" d="M215.02 575.55C214.542 576.243 214.165 577.001 213.9 577.8C204.28 589.1 199.15 599.65 208.4 599.92C217.01 600.17 227.35 615.57 229.82 619.46C229.74 619.762 229.643 620.059 229.53 620.35C229.53 620.35 217.42 600.21 207.53 599.93C197.64 599.65 204.17 587.66 215.02 575.55Z" fill="black"/>
<path d="M204.81 584.71C204.81 587.24 205.09 589.29 205.44 589.29C205.79 589.29 206.07 587.29 206.07 584.71C206.07 582.13 205.72 583.37 205.37 583.37C205.02 583.37 204.81 582.18 204.81 584.71Z" fill="#FFD037"/>
<path d="M201.3 587.72C203.52 588.93 205.46 589.66 205.62 589.35C205.78 589.04 204.12 587.81 201.9 586.6C199.68 585.39 200.56 586.27 200.39 586.6C200.22 586.93 199.12 586.55 201.3 587.72Z" fill="#FFD037"/>
<path d="M206.56 619.4C206.56 619.4 221.92 618.93 226.56 615.63C231.2 612.33 250.19 608.4 251.33 613.68C252.47 618.96 274.41 639.97 257.07 640.11C239.73 640.25 216.78 637.41 212.16 634.59C207.54 631.77 206.56 619.4 206.56 619.4Z" fill="#A8A8A8"/>
<path opacity="0.2" d="M257.37 638.28C240.03 638.42 217.08 635.58 212.46 632.76C208.94 630.62 207.54 622.93 207.07 619.38H206.56C206.56 619.38 207.56 631.77 212.15 634.58C216.74 637.39 239.72 640.24 257.06 640.1C262.06 640.1 263.79 638.28 263.7 635.64C263.01 637.25 261.12 638.25 257.37 638.28Z" fill="black"/>
<path d="M119.56 718.29C121.393 716.796 122.728 714.78 123.39 712.51C123.89 710.21 122.91 707.46 120.71 706.62C118.25 705.68 115.62 707.38 113.63 709.11C111.64 710.84 109.35 712.8 106.74 712.43C108.081 711.214 109.085 709.671 109.653 707.952C110.221 706.233 110.333 704.396 109.98 702.62C109.867 701.884 109.556 701.193 109.08 700.62C107.71 699.16 105.24 699.79 103.6 700.94C98.4 704.6 96.95 711.66 96.92 718.02C96.4 715.73 96.84 713.34 96.82 711.02C96.8 708.7 96.16 706.02 94.18 704.8C92.9522 704.14 91.5733 703.813 90.18 703.85C87.84 703.76 85.24 704 83.64 705.71C81.64 707.83 82.17 711.4 83.9 713.71C85.63 716.02 88.25 717.51 90.67 719.13C92.6095 720.283 94.2639 721.859 95.51 723.74C95.6566 724.001 95.7771 724.276 95.87 724.56H110.52C113.802 722.887 116.843 720.778 119.56 718.29Z" fill="#4CFA60"/>
<path d="M688.69 726.87C688.69 726.87 687.69 742.53 689.69 745.13C689.69 745.13 643.77 753.48 638.03 750.87C632.29 748.26 634.9 744.09 638.03 742.52C641.16 740.95 656.82 735.21 658.9 724.26C658.9 724.26 652.12 721.13 674.03 725.26C695.94 729.39 688.69 726.87 688.69 726.87Z" fill="#DC9BA3"/>
<path opacity="0.05" d="M688.69 726.87C688.69 726.87 687.69 742.53 689.69 745.13C689.69 745.13 643.77 753.48 638.03 750.87C632.29 748.26 634.9 744.09 638.03 742.52C641.16 740.95 656.82 735.21 658.9 724.26C658.9 724.26 652.12 721.13 674.03 725.26C695.94 729.39 688.69 726.87 688.69 726.87Z" fill="black"/>
<path d="M867.68 575.01C867.68 575.01 861.94 584.4 865.59 602.67C869.24 620.94 856.2 620.93 856.2 620.93H830.12L821.25 597.93L833.77 598.93C833.77 598.93 842.12 596.84 838.47 577.53L867.68 575.01Z" fill="#FFD2D9"/>
<path d="M789.41 553.1C793.41 565.81 798.41 581.29 801.08 589.54L802.98 595.37L820.2 577.63C820.2 577.63 819.44 575.87 818.31 573.41C815.79 567.95 811.4 559.04 809.24 558.32C809.24 558.32 833.24 556.75 840.55 562.49C847.86 568.23 845.77 546.83 845.77 546.83C845.77 546.83 831.68 545.83 826.46 542.66C821.24 539.49 793.06 536.4 793.06 536.4C793.06 536.4 783.67 534.83 789.41 553.1Z" fill="#FFD2D9"/>
<path d="M632.85 706.55L636.5 733.16L645.89 732.16C645.89 732.16 646.46 731.62 647.42 730.76C649.95 728.53 655.22 724.16 660.26 721.76C661.966 720.889 663.816 720.336 665.72 720.13L655.28 704.47C652.741 705.422 650.138 706.194 647.49 706.78C644.74 707.427 641.925 707.763 639.1 707.78C636.953 707.812 634.824 707.393 632.85 706.55Z" fill="#FFD2D9"/>
<path d="M658.94 725.31C663.64 729.48 685.03 720.61 688.69 734.18L692.05 721.31L702.4 681.71L703.82 676.26L712.44 675.89L811.37 671.67L816.97 671.43L819.97 671.3L816.05 669.36L789.96 656.43C789.96 656.43 780.56 655.77 767.6 653.99C747.95 651.3 720.11 645.99 704.39 636.6C678.3 620.94 668.39 673.65 668.39 673.65C668.39 673.65 664.39 687.02 661.39 700.2C660.013 705.885 658.961 711.645 658.24 717.45C657.79 721.48 657.93 724.4 658.94 725.31Z" fill="#E9E9EF"/>
<path opacity="0.05" d="M658.94 725.31C663.64 729.48 685.03 720.61 688.69 734.18L692.05 721.31L702.4 681.71L703.82 676.26L712.71 675.71L808.29 669.83L814.19 669.46L816.01 669.35L818.36 669.2L789.92 656.41C789.92 656.41 780.52 655.75 767.56 653.97C747.91 651.28 720.07 645.97 704.35 636.58C678.26 620.92 668.35 673.63 668.35 673.63C668.35 673.63 664.35 687 661.35 700.18C659.973 705.865 658.921 711.625 658.2 717.43C657.79 721.48 657.93 724.4 658.94 725.31Z" fill="black"/>
<path opacity="0.1" d="M647.5 706.74L656.63 717.45L660.27 721.72C661.976 720.849 663.826 720.296 665.73 720.09L655.29 704.43C652.751 705.382 650.148 706.154 647.5 706.74Z" fill="black"/>
<path d="M647.99 705.48L658.2 717.48L663.12 723.25V724.82C669.12 726.21 687.91 722.25 692.05 721.34L692.86 721.16C704.86 721.68 749.22 695.59 749.22 695.59C749.22 695.59 797.75 703.94 821.22 701.85C834.33 700.68 838.01 695.94 838.7 691.97C839.003 690.008 838.732 688.001 837.92 686.19L816.92 671.44L814.14 669.44L809.7 666.31C809.7 666.31 801.98 664.56 792.18 662.4C776.86 659.02 756.45 654.63 752.32 654.32C745.54 653.8 728.32 659.54 718.4 671.02C716.698 672.812 714.776 674.381 712.68 675.69L712.41 675.87C709.62 677.72 706.19 679.68 702.41 681.69C689.78 688.34 672.94 695.49 661.36 700.18C653.44 703.41 647.99 705.48 647.99 705.48Z" fill="#E9E9EF"/>
<path opacity="0.1" d="M632.85 706.55L636.5 733.16L645.89 732.16C645.89 732.16 646.46 731.62 647.42 730.76C645.34 730.76 641.91 730.21 641.19 725.9C641.19 725.9 644.81 713.25 639.1 707.8C636.952 707.826 634.823 707.4 632.85 706.55Z" fill="black"/>
<path d="M640.12 725.83C640.12 725.83 645.34 707.57 633.34 705.48L613.51 713.31L590.51 714.88C590.51 714.88 584.51 724.67 594.12 735.65C596.763 738.627 599.98 741.038 603.578 742.74C607.177 744.441 611.082 745.397 615.06 745.55L640.12 746.7L647.99 730.55C647.99 730.55 641.2 732.09 640.12 725.83Z" fill="#DC9BA3"/>
<path opacity="0.1" d="M767.57 653.99C770.2 654.76 781.08 657.99 792.22 662.42C797.727 664.542 803.091 667.017 808.28 669.83C809.36 670.44 810.39 671.05 811.36 671.66C813.901 673.154 816.175 675.06 818.09 677.3C824.53 685.63 833.99 690.12 838.7 691.95C839.003 689.988 838.732 687.981 837.92 686.17L816.92 671.42L819.92 671.29L816 669.35L818.35 669.2L789.91 656.41C789.91 656.41 780.53 655.77 767.57 653.99Z" fill="black"/>
<path opacity="0.1" d="M801.12 589.55L803.02 595.38L820.24 577.64C820.24 577.64 819.48 575.88 818.35 573.42C816.12 578.01 805.73 586.07 801.12 589.55Z" fill="black"/>
<path d="M863.21 598.2C863.827 596.432 864.279 594.611 864.56 592.76L886.99 600.55C886.99 600.55 902.38 612.29 900.82 637.86C900.82 637.86 881.82 630.86 873.42 639.16L873.25 640.63C871.484 655.222 865.027 668.845 854.85 679.45C850.7 683.81 846.79 688.72 844.72 693.45C844.72 693.45 830.11 689.28 821.24 677.79C812.37 666.3 770.12 654.34 770.12 654.34C770.12 654.34 792.56 654.86 795.69 647.03C798.82 639.2 809.26 622.5 805.61 609.46C801.96 596.42 799.87 592.24 799.87 592.24C799.87 592.24 821.27 577.11 819.7 572.41L833.27 588.07L839.53 590.16C839.036 591.373 838.784 592.67 838.79 593.98C838.43 608.15 858.45 611.55 863.21 598.2Z" fill="#CEDAD5"/>
<path opacity="0.1" d="M839.25 584.48C839.092 582.531 838.828 580.591 838.46 578.67L867.68 576.06C867.68 576.06 865.68 577.81 864.78 584.33C861.35 586.33 857.35 589.11 853.07 589.11C848.082 589.116 843.228 587.49 839.25 584.48Z" fill="black"/>
<path d="M852.81 588.32C865.49 588.32 875.77 578.04 875.77 565.36C875.77 552.68 865.49 542.4 852.81 542.4C840.13 542.4 829.85 552.68 829.85 565.36C829.85 578.04 840.13 588.32 852.81 588.32Z" fill="#FFD2D9"/>
<path d="M869.77 571.36H866.64V562.49L863.51 553.1C863.51 553.1 847.85 545.79 840.51 547.36L834.81 552.55C834.81 552.55 833.24 540.03 842.64 535.33C852.04 530.63 868.73 532.72 872.91 536.33C877.09 539.94 883.91 546.25 878.65 563.47L877.12 567.71C877.12 567.71 870.81 565.62 869.77 571.36Z" fill="#844F6E"/>
<g opacity="0.05">
<path d="M829.21 583.41L827.5 582.84L819.62 573.75C819.774 573.319 819.792 572.851 819.67 572.41L829.21 583.41Z" fill="black"/>
<path d="M840.19 600.25C837.96 599.3 836.076 597.687 834.793 595.629C833.511 593.572 832.892 591.171 833.02 588.75C833.02 588.44 833.02 588.15 833.02 587.87L833.18 588.06L839.44 590.15C838.946 591.362 838.694 592.66 838.7 593.97C838.637 596.158 839.151 598.324 840.19 600.25Z" fill="black"/>
<path d="M779.32 653.91C792.4 658.46 810.11 665.63 815.5 672.6L815.9 673.1C801.57 663.27 770.1 654.33 770.1 654.33C773.179 654.365 776.257 654.224 779.32 653.91Z" fill="black"/>
<path d="M838.98 688.26C841.05 683.55 844.98 678.63 849.11 674.26C859.287 663.655 865.744 650.032 867.51 635.44L867.68 633.97C876.03 625.62 895.08 632.67 895.08 632.67C896.08 616.45 890.24 605.8 885.85 600.18L887 600.58C887 600.58 902.39 612.32 900.83 637.89C900.83 637.89 881.83 630.89 873.43 639.19L873.26 640.66C871.494 655.251 865.037 668.875 854.86 679.48C850.71 683.84 846.8 688.75 844.73 693.48C844.73 693.48 832.01 689.84 823.11 680.04C827.907 683.642 833.27 686.42 838.98 688.26Z" fill="black"/>
</g>
<path d="M844.72 627.2C844.72 627.2 869.72 663.2 882.81 673.64C895.9 684.08 899.51 668.94 899.51 668.94V635.55L876.51 632.94L876.26 636.11L875.98 639.73L854.58 616.73C854.58 616.73 833.18 597.42 829.01 608.9C824.84 620.38 844.72 627.2 844.72 627.2Z" fill="#FFD2D9"/>
<path opacity="0.1" d="M876.31 636.11C879.44 637.933 882.76 639.408 886.21 640.51C891.14 642.03 896.79 640.43 899.52 639.45V635.55L876.52 632.94L876.31 636.11Z" fill="black"/>
<path d="M899.78 632.16L901.12 637.75C901.12 637.75 892.96 641.55 886.18 639.47C881.608 637.92 877.243 635.818 873.18 633.21C872.18 632.69 877.35 626.95 877.35 626.95L899.78 632.16Z" fill="#CEDAD5"/>
<path opacity="0.1" d="M749.48 695.82C746.001 693.149 742.128 691.033 738 689.55C734.063 688.206 730.354 686.27 727 683.81" fill="black"/>
<path opacity="0.2" d="M590.58 714.87L591.43 714.81C590.19 717.96 588.43 725.66 595.75 734.07C598.385 737.037 601.592 739.441 605.178 741.141C608.764 742.84 612.655 743.799 616.62 743.96L640.92 745.1L640.14 746.7L615.06 745.55C611.095 745.389 607.204 744.43 603.618 742.731C600.032 741.031 596.825 738.627 594.19 735.66C584.58 724.66 590.58 714.87 590.58 714.87Z" fill="white"/>
<path opacity="0.05" d="M679.19 737.24C679.117 737.553 679.033 737.863 678.94 738.17C678.43 737.88 677.7 737.32 679.19 737.24Z" fill="#00FF00"/>
<path opacity="0.2" d="M638.12 749.31C643.47 751.74 683.69 744.66 689.12 743.68C689.23 744.199 689.441 744.692 689.74 745.13C689.74 745.13 643.82 753.48 638.08 750.87C635.08 749.53 634.39 747.77 634.79 746.17C635.12 747.29 636.06 748.4 638.12 749.31Z" fill="white"/>
<path opacity="0.1" d="M838.22 554.39C832.575 550.976 827.991 546.06 824.98 540.19C824.558 539.543 824.384 538.765 824.49 538C824.86 536.58 826.71 536.33 828.05 535.72C830.54 534.58 831.59 531.72 833.22 529.5C834.619 527.673 836.497 526.269 838.645 525.445C840.793 524.621 843.128 524.408 845.39 524.83C847.77 525.31 849.97 526.49 852.39 526.83C857.57 527.59 863.21 524.45 867.86 526.83C869.98 527.92 871.42 529.97 872.68 531.99C875.85 537.06 879.82 542.45 876.94 548.37C875.29 551.77 872.65 554.59 868.94 555.58C865.23 556.57 860.94 555.74 857.16 555.34C854.06 555 850.8 554.34 847.68 554.62C844 555 841.71 556.49 838.22 554.39Z" fill="black"/>
<path d="M838.22 553.34C832.575 549.926 827.991 545.01 824.98 539.14C824.558 538.493 824.384 537.715 824.49 536.95C824.86 535.53 826.71 535.28 828.05 534.67C830.54 533.53 831.59 530.67 833.22 528.45C834.619 526.623 836.497 525.219 838.645 524.395C840.793 523.571 843.128 523.358 845.39 523.78C847.77 524.26 849.97 525.44 852.39 525.78C857.57 526.54 863.21 523.4 867.86 525.78C869.98 526.87 871.42 528.92 872.68 530.94C875.85 536.01 879.82 541.4 876.94 547.32C875.29 550.72 872.65 553.54 868.94 554.53C865.23 555.52 860.94 554.69 857.16 554.29C854.06 553.95 850.8 553.29 847.68 553.57C844 553.95 841.71 555.45 838.22 553.34Z" fill="#844F6E"/>
<path d="M408.06 677.66C408.06 688.42 408.66 695.53 408.66 695.53C408.66 695.53 424.03 696.39 423.6 710.64C423.17 724.89 483.34 727.91 483.34 727.91C483.34 727.91 483.34 727.76 483.34 727.48C483.34 727.48 483.34 726.33 483.34 724.25C489.06 725.1 495.18 725.79 498.61 725.46C498.38 726.57 498.11 727.74 497.85 728.78C497.57 729.06 492.03 734.66 492.21 740.62C492.11 743.62 493.47 746.7 497.87 749.26C510.57 756.68 550.12 752.55 550.12 752.55C556.12 748.61 558.12 745.26 558.01 742.48C558.2 738.38 554.11 735.48 550.36 733.61C547.461 732.164 544.139 731.809 541 732.61C536.765 733.548 532.417 733.868 528.09 733.56C528.257 732.7 528.481 731.851 528.76 731.02C532.82 732.17 535.62 733.02 535.62 733.02C535.62 733.02 556.7 721.8 547.92 703.67C546.535 701.155 544.451 699.095 541.92 697.74C548.69 686.07 555.12 672.33 554.48 663.09C553.41 647.67 522.79 651.03 511.32 652.84L489.21 631.15C489.21 615.15 489.7 596.78 488.21 592.8C485.57 585.89 486.45 586.8 484.7 583.74L484.63 583.63C483.63 582.01 480.91 579.44 480.21 579.79C479.912 576.611 479.955 573.409 480.34 570.24C485.782 568.46 490.525 565.012 493.896 560.385C497.267 555.757 499.095 550.185 499.12 544.46C499.123 540.175 498.094 535.953 496.12 532.15L496.42 532.02L493.52 517.76C493.416 517.459 493.374 517.14 493.397 516.822C493.419 516.504 493.505 516.194 493.65 515.91C493.95 515.51 494.46 515.39 494.85 515.11C495.291 514.682 495.577 514.119 495.662 513.511C495.747 512.902 495.627 512.282 495.32 511.75C495.05 511.22 494.68 510.748 494.23 510.36C491.79 507.59 486.6 508.58 483.41 508.17C479.09 507.62 474.56 506.82 470.47 508.96C469.589 509.506 468.67 509.987 467.72 510.4C466.418 510.754 465.065 510.882 463.72 510.78C461.285 510.777 458.855 510.995 456.46 511.43C453.34 510.3 449.67 511.3 446.78 513.03C443.474 515.055 440.781 517.941 438.991 521.38C437.201 524.819 436.382 528.68 436.62 532.55C436.872 534.969 437.337 537.362 438.01 539.7L443.36 560.55C443.702 562.292 444.381 563.949 445.36 565.43C445.597 565.743 445.865 566.031 446.16 566.29C446.67 566.904 447.33 567.377 448.077 567.66C448.823 567.944 449.63 568.03 450.42 567.91C450.624 567.861 450.822 567.791 451.01 567.7C450.828 569.894 450.402 572.061 449.74 574.16C443.62 575.94 434.74 582.16 424.08 600.16C410.4 623.22 408.12 657.22 408.06 677.66Z" fill="url(#paint0_linear_2_67)"/>
<path d="M461.25 707.65H521.09V664.79H461.25V707.65Z" fill="#5F5D7E"/>
<path d="M506.24 655.45C506.24 655.45 550.8 646.11 552.07 664.79C553.34 683.47 525.76 720.79 525.76 720.79L500.76 715.7L507.97 686.84C507.97 686.84 479.54 680.47 477.84 680.05C476.14 679.63 506.24 655.45 506.24 655.45Z" fill="#5F5D7E"/>
<path opacity="0.1" d="M506.24 655.45C506.24 655.45 550.8 646.11 552.07 664.79C553.34 683.47 525.76 720.79 525.76 720.79L500.76 715.7L507.97 686.84C507.97 686.84 479.54 680.47 477.84 680.05C476.14 679.63 506.24 655.45 506.24 655.45Z" fill="black"/>
<path d="M529.59 725.9C529.59 725.9 525.35 733.96 526.59 737.36C527.83 740.76 496.46 732.69 496.46 732.69C496.46 732.69 499.01 722.93 498.58 721.69C498.15 720.45 529.59 725.9 529.59 725.9Z" fill="#5F5D7E"/>
<path d="M502 670.73L505.12 673.55L507.12 675.37C507.12 675.37 517.31 691.92 530.46 681.74C543.61 671.56 520.25 663.94 515.58 663.55C514.644 663.413 513.754 663.051 512.988 662.496C512.222 661.94 511.601 661.208 511.18 660.36C510.464 659.114 509.945 657.764 509.64 656.36L502 670.73Z" fill="#FDC2CC"/>
<path opacity="0.05" d="M502 670.73L505.12 673.55L507.12 675.37C507.12 675.37 517.31 691.92 530.46 681.74C543.61 671.56 520.25 663.94 515.58 663.55C514.644 663.413 513.754 663.051 512.988 662.496C512.222 661.94 511.601 661.208 511.18 660.36C510.464 659.114 509.945 657.764 509.64 656.36L502 670.73Z" fill="black"/>
<path opacity="0.1" d="M529.59 725.9C529.59 725.9 525.35 733.96 526.59 737.36C527.83 740.76 496.46 732.69 496.46 732.69C496.46 732.69 499.01 722.93 498.58 721.69C498.15 720.45 529.59 725.9 529.59 725.9Z" fill="black"/>
<path opacity="0.1" d="M502 670.73L505.12 673.55C505.12 668.11 508.73 663.11 511.2 660.3C510.484 659.054 509.965 657.705 509.66 656.3L502 670.73Z" fill="black"/>
<path d="M483.33 627.87L512.61 657.15C512.61 657.15 502.42 666.06 504.55 675.4L483.33 651.63V627.87Z" fill="#C4C8E2"/>
<path opacity="0.1" d="M483.54 627.87V651.64L486.94 655.45L497.03 666.75L504.76 675.41C502.64 666.07 512.82 657.16 512.82 657.16L483.54 627.87Z" fill="black"/>
<path d="M483.33 585.85C483.33 585.85 483.33 594.76 475.69 592.22C468.05 589.68 473.99 692.8 473.99 692.8C473.99 692.8 496.06 676.25 491.81 664.37C487.56 652.49 486.72 643.55 487.12 631.69C487.52 619.83 483.33 585.85 483.33 585.85Z" fill="#D39999"/>
<path d="M482.9 562.09C482.9 562.09 476.53 579.49 482.9 592.65C489.27 605.81 445.12 585.43 445.12 585.43C445.12 585.43 454.88 580.76 451.49 558.27L482.9 562.09Z" fill="#FDC2CC"/>
<path opacity="0.1" d="M486.72 641.45C486.459 646.113 486.459 650.787 486.72 655.45L496.81 666.75C495.333 663.594 493.663 660.531 491.81 657.58C490.24 655.15 489.89 645.46 489.81 634.4L486.11 630.7C486.5 636.67 486.72 641.45 486.72 641.45Z" fill="black"/>
<path d="M480.12 583.55C479.65 581.32 483.33 584.68 484.51 586.63L484.57 586.74C486.27 589.74 485.42 588.86 487.97 595.65C490.52 602.44 487.12 651.65 490.97 657.65C493.57 661.854 495.841 666.254 497.76 670.81L490.97 668.26C490.97 668.26 488.42 660.62 486.73 658.92C485.04 657.22 485.88 641.52 485.88 641.52C485.88 641.52 484.61 614.36 483.33 608.42C482.32 603.64 481.12 588.24 480.12 583.55Z" fill="#C4C8E2"/>
<path opacity="0.1" d="M480.12 583.55C479.65 581.32 483.33 584.68 484.51 586.63L484.57 586.74C486.27 589.74 485.42 588.86 487.97 595.65C490.52 602.44 487.12 651.65 490.97 657.65C493.57 661.854 495.841 666.254 497.76 670.81L490.97 668.26C490.97 668.26 488.42 660.62 486.73 658.92C485.04 657.22 485.88 641.52 485.88 641.52C485.88 641.52 484.61 614.36 483.33 608.42C482.32 603.64 481.12 588.24 480.12 583.55Z" fill="black"/>
<path d="M470.17 689.4C470.17 689.4 537.22 686.85 545.71 704.68C554.2 722.51 533.83 733.55 533.83 733.55C533.83 733.55 505.4 724.64 499.03 725.91C492.66 727.18 470.17 722.51 470.17 722.51V689.4Z" fill="#5F5D7E"/>
<path d="M507.52 678.37C507.52 678.37 522.8 669.88 531.29 675.37C539.78 680.86 538.93 695.74 527.05 696.16C515.17 696.58 508.8 689.37 508.8 689.37L507.52 678.37Z" fill="#FDC2CC"/>
<path d="M459.56 577.79C459.56 577.79 445.98 568.45 426.03 602.79C406.08 637.13 411.18 696.15 411.18 696.15C411.18 696.15 426.03 697 425.61 711C425.19 725 483.33 728 483.33 728C483.33 728 482.48 588.8 476.54 585C470.6 581.2 459.56 577.79 459.56 577.79Z" fill="#C4C8E2"/>
<path opacity="0.1" d="M459.5 603.11C461.895 604.836 463.844 607.108 465.187 609.737C466.529 612.367 467.226 615.278 467.22 618.23C467.29 630.94 467.6 658.33 468.89 663.51C470.59 670.3 496.05 679.21 509.21 678.79C509.21 678.79 515.58 690.67 507.94 693.22C500.3 695.77 453.62 693.22 453.62 693.22C453.62 693.22 435.37 672.43 434.95 654.22C434.53 636.01 431.95 615.6 434.95 611.78C437.4 608.55 447.65 594.75 459.5 603.11Z" fill="black"/>
<path d="M460.35 601.41C462.757 603.133 464.718 605.405 466.069 608.039C467.421 610.672 468.124 613.59 468.12 616.55C468.19 629.26 468.5 656.65 469.79 661.83C471.49 668.62 496.95 677.53 510.11 677.11C510.11 677.11 516.48 688.99 508.84 691.54C501.2 694.09 454.52 691.54 454.52 691.54C454.52 691.54 436.27 670.75 435.85 652.54C435.43 634.33 432.85 613.92 435.85 610.1C438.25 606.89 448.5 593.05 460.35 601.41Z" fill="#C4C8E2"/>
<path d="M548.07 734.06C554.16 737.06 561.22 743.24 547.84 752.63C547.84 752.63 509.65 756.87 497.34 749.23C485.03 741.59 497.34 729.28 497.34 729.28C497.34 729.28 525.51 736.77 539.03 733.11C542.058 732.313 545.274 732.651 548.07 734.06Z" fill="#4C4C56"/>
<path opacity="0.1" d="M548.07 734.92C554.16 737.82 561.22 743.7 547.84 752.69C547.84 752.69 509.65 756.75 497.34 749.44C485.03 742.13 497.34 730.36 497.34 730.36C497.34 730.36 525.51 737.52 539.03 734.03C542.055 733.262 545.253 733.577 548.07 734.92Z" fill="black"/>
<path opacity="0.1" d="M461.47 633.17C461.47 633.17 463.59 659.91 477.6 665.85L461.47 633.17Z" fill="black"/>
<path opacity="0.1" d="M482.48 565.06C481.241 568.74 480.4 572.541 479.97 576.4C477.29 577.3 473.37 575.04 470.38 575.04C462.6 575.04 460.38 566.34 455.53 561.04C455.53 558.68 451.53 564.19 451.07 561.25L482.48 565.06Z" fill="black"/>
<path d="M445.12 548.08C445.117 550.298 445.389 552.509 445.93 554.66L446.02 555C447.771 561.596 451.967 567.278 457.754 570.893C463.542 574.509 470.489 575.786 477.184 574.467C483.88 573.148 489.822 569.331 493.806 563.79C497.79 558.249 499.516 551.401 498.635 544.634C497.754 537.867 494.33 531.688 489.06 527.353C483.79 523.018 477.068 520.85 470.258 521.29C463.448 521.73 457.061 524.744 452.392 529.721C447.723 534.699 445.124 541.266 445.12 548.09V548.08Z" fill="#FDC2CC"/>
<path opacity="0.1" d="M426.04 603.25C428.812 598.368 431.986 593.725 435.53 589.37C432.68 593.116 430.078 597.044 427.74 601.13C407.79 635.51 412.89 694.49 412.89 694.49C412.89 694.49 427.74 695.34 427.32 709.34C426.94 721.91 473.73 725.59 483.32 726.21C483.32 727.65 483.32 728.43 483.32 728.43C483.32 728.43 425.18 725.43 425.6 711.43C426.02 697.43 411.17 696.58 411.17 696.58C411.17 696.58 406.12 637.63 426.04 603.25Z" fill="black"/>
<path opacity="0.1" d="M448.51 517.55C451.31 515.86 454.85 514.87 457.87 515.98C460.179 515.553 462.522 515.339 464.87 515.34C466.155 515.436 467.447 515.311 468.69 514.97C469.61 514.566 470.499 514.095 471.35 513.56C475.3 511.46 479.68 512.25 483.85 512.79C487.24 513.23 492.97 512 494.93 515.88C495.226 516.404 495.343 517.01 495.261 517.606C495.18 518.202 494.906 518.755 494.48 519.18C494.1 519.46 493.61 519.57 493.32 519.97C493.179 520.25 493.095 520.555 493.073 520.867C493.05 521.179 493.09 521.493 493.19 521.79L495.99 535.79C494.701 536.418 493.297 536.775 491.864 536.841C490.432 536.906 489.001 536.678 487.66 536.17C486.91 535.875 486.176 535.541 485.46 535.17C483.37 536.53 481.21 535.5 478.68 536.04C477.184 536.47 475.853 537.341 474.86 538.54C471.918 541.676 469.949 545.598 469.19 549.83C468.91 551.42 468.54 553.38 467 553.83C466.416 553.942 465.824 554.003 465.23 554.01C462.45 554.37 461.31 557.66 459.52 559.83C457.34 562.47 453.43 564.19 453.19 567.61C453.13 568.49 453.32 569.46 452.83 570.2C452.499 570.642 452.013 570.942 451.47 571.04C450.614 571.161 449.741 571.037 448.952 570.683C448.163 570.329 447.49 569.76 447.01 569.04C446.078 567.58 445.437 565.953 445.12 564.25L439.95 543.75C439.299 541.46 438.847 539.118 438.6 536.75C438.368 532.954 439.166 529.165 440.911 525.785C442.655 522.406 445.281 519.56 448.51 517.55Z" fill="black"/>
<path d="M448.12 517.17C450.92 515.48 454.46 514.49 457.48 515.6C459.789 515.173 462.132 514.959 464.48 514.96C465.765 515.056 467.057 514.931 468.3 514.59C469.22 514.186 470.109 513.714 470.96 513.18C474.91 511.08 479.29 511.87 483.46 512.41C486.85 512.85 492.58 511.62 494.54 515.5C494.836 516.024 494.953 516.63 494.871 517.226C494.79 517.822 494.516 518.375 494.09 518.8C493.71 519.08 493.22 519.19 492.93 519.59C492.789 519.87 492.705 520.175 492.683 520.487C492.66 520.799 492.7 521.113 492.8 521.41L495.6 535.41C494.311 536.038 492.907 536.395 491.474 536.461C490.042 536.526 488.611 536.298 487.27 535.79C486.52 535.495 485.786 535.161 485.07 534.79C482.98 536.15 480.82 535.12 478.29 535.66C476.794 536.09 475.463 536.961 474.47 538.16C471.528 541.296 469.559 545.218 468.8 549.45C468.52 551.04 468.15 553 466.61 553.45C466.026 553.562 465.434 553.622 464.84 553.63C462.06 553.99 460.92 557.28 459.13 559.45C456.95 562.09 453.04 563.81 452.8 567.23C452.74 568.11 452.93 569.08 452.44 569.82C452.109 570.262 451.623 570.562 451.08 570.66C450.224 570.781 449.351 570.657 448.562 570.303C447.773 569.949 447.099 569.38 446.62 568.66C445.688 567.199 445.047 565.573 444.73 563.87L439.56 543.37C438.909 541.08 438.457 538.738 438.21 536.37C437.978 532.574 438.776 528.785 440.521 525.405C442.265 522.025 444.891 519.18 448.12 517.17Z" fill="#865A61"/>
</g>
<defs>
<linearGradient id="paint0_linear_2_67" x1="558" y1="630.63" x2="408.06" y2="630.63" gradientUnits="userSpaceOnUse">
<stop stop-color="#808080" stop-opacity="0.25"/>
<stop offset="0.54" stop-color="#808080" stop-opacity="0.12"/>
<stop offset="1" stop-color="#808080" stop-opacity="0.1"/>
</linearGradient>
<clipPath id="clip0_2_67">
<rect width="1142.23" height="781.11" fill="white"/>
</clipPath>
</defs>
</svg>
