<svg width="72" height="72" viewBox="0 0 72 72" fill="none" xmlns="http://www.w3.org/2000/svg">
<path d="M30 45L45.57 36L30 27V45ZM64.68 21.51C65.07 22.92 65.34 24.81 65.52 27.21C65.73 29.61 65.82 31.68 65.82 33.48L66 36C66 42.57 65.52 47.4 64.68 50.49C63.93 53.19 62.19 54.93 59.49 55.68C58.08 56.07 55.5 56.34 51.54 56.52C47.64 56.73 44.07 56.82 40.77 56.82L36 57C23.43 57 15.6 56.52 12.51 55.68C9.81 54.93 8.07 53.19 7.32 50.49C6.93 49.08 6.66 47.19 6.48 44.79C6.27 42.39 6.18 40.32 6.18 38.52L6 36C6 29.43 6.48 24.6 7.32 21.51C8.07 18.81 9.81 17.07 12.51 16.32C13.92 15.93 16.5 15.66 20.46 15.48C24.36 15.27 27.93 15.18 31.23 15.18L36 15C48.57 15 56.4 15.48 59.49 16.32C62.19 17.07 63.93 18.81 64.68 21.51Z" fill="#F2F3F2"/>
</svg>
